<svg xmlns="http://www.w3.org/2000/svg" width="53.033" height="55.688" viewBox="0 0 53.033 55.688">
  <g id="calendar_4_" data-name="calendar (4)" transform="translate(0.578)">
    <path id="Path_4988" data-name="Path 4988" d="M373.376,390.4a1.181,1.181,0,0,0-1.671,0l-3.483,3.483-3.685-3.684a1.181,1.181,0,1,0-1.671,1.67l3.685,3.685-3.685,3.685a1.181,1.181,0,0,0,0,1.671,1.163,1.163,0,0,0,.841.344,1.214,1.214,0,0,0,.842-.344l3.684-3.685,3.484,3.483a1.16,1.16,0,0,0,.841.343,1.21,1.21,0,0,0,.841-.343,1.179,1.179,0,0,0,0-1.671l-3.507-3.483,3.484-3.483a1.181,1.181,0,0,0,0-1.671Zm0,0" transform="translate(-328.681 -352.897)" fill="#da3e7b"/>
    <path id="Path_4989" data-name="Path 4989" d="M102.611,263.745h18.365a1.185,1.185,0,1,0,0-2.37H102.611a1.185,1.185,0,1,0,0,2.37Zm0,0" transform="translate(-92.335 -236.6)" fill="#da3e7b"/>
    <path id="Path_4990" data-name="Path 4990" d="M113.606,342.625H102.611a1.185,1.185,0,0,0,0,2.37h10.995a1.185,1.185,0,0,0,0-2.37Zm0,0" transform="translate(-92.335 -310.149)" fill="#da3e7b"/>
    <path id="Path_4991" data-name="Path 4991" d="M41.839,29.845V9.372a5.926,5.926,0,0,0-5.924-5.924H31.057V1.185a1.185,1.185,0,1,0-2.37,0V3.448H12.574V1.185a1.185,1.185,0,0,0-2.37,0V3.448H5.346A5.926,5.926,0,0,0-.578,9.372v32.1a5.927,5.927,0,0,0,5.924,5.924H27.278A13.035,13.035,0,1,0,41.839,29.845ZM5.358,5.818h4.858V8.081a1.185,1.185,0,0,0,2.37,0V5.818H28.7V8.081a1.185,1.185,0,0,0,2.37,0V5.818h4.858a3.565,3.565,0,0,1,3.554,3.554v2.867H1.8V9.372A3.557,3.557,0,0,1,5.358,5.818Zm0,39.206A3.565,3.565,0,0,1,1.8,41.469V14.6H39.469V29.621h-.036a13.053,13.053,0,0,0-12.82,15.4Zm34.075,8.294A10.663,10.663,0,1,1,50.1,42.654,10.664,10.664,0,0,1,39.434,53.317Zm0,0" fill="#da3e7b"/>
  </g>
</svg>
