<svg xmlns="http://www.w3.org/2000/svg" width="45.72" height="45.721" viewBox="0 0 45.72 45.721">
  <g id="checked_1_" data-name="checked (1)" transform="translate(-0.001 0)">
    <g id="Group_1610" data-name="Group 1610" transform="translate(0.001 0)">
      <path id="Path_4986" data-name="Path 4986" d="M48.867.328A1.463,1.463,0,0,0,46.8.557l-23.524,29.6-7.7-9.691a1.463,1.463,0,0,0-2.072-.229,1.5,1.5,0,0,0-.225,2.094L21.8,33.055a1.441,1.441,0,0,0,1.263.737,1.538,1.538,0,0,0,.249-.038,1.2,1.2,0,0,0,.144.031,1.514,1.514,0,0,0,1.206-.614L49.094,2.421A1.5,1.5,0,0,0,48.867.328Z" transform="translate(-3.699 0)" fill="#da3e7b"/>
      <path id="Path_4987" data-name="Path 4987" d="M42.263,15.744a1.48,1.48,0,0,0-1.473,1.489V41.864a1.484,1.484,0,0,1-1.474,1.489H4.423a1.484,1.484,0,0,1-1.474-1.489V6.607A1.484,1.484,0,0,1,4.423,5.118H28.577a1.49,1.49,0,0,0,0-2.979H4.423A4.449,4.449,0,0,0,0,6.607V41.864a4.45,4.45,0,0,0,4.422,4.468H39.314a4.451,4.451,0,0,0,4.423-4.468V17.233A1.48,1.48,0,0,0,42.263,15.744Z" transform="translate(-0.001 -0.611)" fill="#da3e7b"/>
    </g>
  </g>
</svg>
