<svg xmlns="http://www.w3.org/2000/svg" width="51.055" height="46.571" viewBox="0 0 51.055 46.571">
  <g id="Group_1608" data-name="Group 1608" transform="translate(-521.2 -264.464)">
    <g id="movie-tickets" transform="translate(521.2 259.98)">
      <path id="Path_4934" data-name="Path 4934" d="M48.064,24.53H2.992A3,3,0,0,0,0,27.521V33.8a1,1,0,0,0,1,1,2.992,2.992,0,0,1,0,5.983,1,1,0,0,0-1,1v6.282a3,3,0,0,0,2.992,2.992H48.064a3,3,0,0,0,2.992-2.992V41.781a1,1,0,0,0-1-1,2.992,2.992,0,0,1,0-5.983,1,1,0,0,0,1-1V27.521a3,3,0,0,0-2.992-2.992Zm-12.795,0h0Zm13.792,8.377a4.987,4.987,0,0,0,0,9.771v5.385a1,1,0,0,1-1,1H2.992a1,1,0,0,1-1-1V42.678a4.987,4.987,0,0,0,0-9.771V27.521a1,1,0,0,1,1-1H48.064a1,1,0,0,1,1,1Zm0,0" transform="translate(0 0)" fill="#da3e7b"/>
      <path id="Path_4935" data-name="Path 4935" d="M198.2,346.7a1,1,0,1,0-.7.292A1.006,1.006,0,0,0,198.2,346.7Zm0,0" transform="translate(-176.905 -310.594)" fill="#da3e7b"/>
      <path id="Path_4936" data-name="Path 4936" d="M297.2,346.7a1,1,0,1,0-.7.292A1.006,1.006,0,0,0,297.2,346.7Zm0,0" transform="translate(-266.033 -310.594)" fill="#da3e7b"/>
      <path id="Path_4937" data-name="Path 4937" d="M247.7,346.7a1,1,0,1,0-.7.292A1.006,1.006,0,0,0,247.7,346.7Zm0,0" transform="translate(-221.469 -310.594)" fill="#da3e7b"/>
      <path id="Path_4938" data-name="Path 4938" d="M148,346.99a1,1,0,1,0-.705-.292A1.005,1.005,0,0,0,148,346.99Zm0,0" transform="translate(-132.341 -310.594)" fill="#da3e7b"/>
      <path id="Path_4939" data-name="Path 4939" d="M346.7,346.7a1,1,0,1,0-.705.292A1.006,1.006,0,0,0,346.7,346.7Zm0,0" transform="translate(-310.597 -310.594)" fill="#da3e7b"/>
      <path id="Path_4940" data-name="Path 4940" d="M148,394.99h19.744a1,1,0,0,0,0-1.994H148a1,1,0,0,0,0,1.994Zm0,0" transform="translate(-132.341 -353.808)" fill="#da3e7b"/>
      <path id="Path_4941" data-name="Path 4941" d="M184.317,441a1,1,0,1,0,.705.292A1.005,1.005,0,0,0,184.317,441Zm0,0" transform="translate(-165.039 -397.021)" fill="#da3e7b"/>
      <path id="Path_4942" data-name="Path 4942" d="M125.311,297H95a1,1,0,0,0-1,1v14.359a1,1,0,0,0,1,1h4.154a1,1,0,1,0,0-1.994H95.994V298.99h28.32v12.365H108.125a1,1,0,1,0,0,1.994h17.186a1,1,0,0,0,1-1V297.993A1,1,0,0,0,125.311,297Zm0,0" transform="translate(-84.626 -267.381)" fill="#da3e7b"/>
    </g>
    <g id="transfer_3_" data-name="transfer (3)" transform="translate(547.135 213.266)">
      <g id="Group_1607" data-name="Group 1607" transform="translate(0 51.198)">
        <path id="Path_4969" data-name="Path 4969" d="M23.344,57.343l-5.9-5.9a.843.843,0,0,0-1.438.6v2.528h-5.9a.843.843,0,0,0,0,1.685h6.74a.843.843,0,0,0,.843-.843V54.075l3.864,3.864L17.693,61.8V60.466a.843.843,0,0,0-.843-.843H7.583V57.1a.843.843,0,0,0-1.438-.6l-5.9,5.9a.842.842,0,0,0,0,1.191l5.9,5.9a.843.843,0,0,0,.6.247.832.832,0,0,0,.323-.064.843.843,0,0,0,.52-.779V66.364h5.9a.843.843,0,0,0,0-1.685H6.74a.843.843,0,0,0-.843.843v1.336L2.034,62.994,5.9,59.13v1.336a.843.843,0,0,0,.843.843h9.268v2.528a.843.843,0,0,0,1.438.6l5.9-5.9A.843.843,0,0,0,23.344,57.343Z" transform="translate(0 -51.198)" fill="#da3e7b"/>
      </g>
    </g>
  </g>
</svg>
