<svg xmlns="http://www.w3.org/2000/svg" width="27.13" height="32.554" viewBox="0 0 27.13 32.554">
  <g id="Group_1567" data-name="Group 1567" transform="translate(-1155.024 -36)">
    <g id="notification" transform="translate(1155.023 36)">
      <g id="Group_1464" data-name="Group 1464" transform="translate(0 4.748)">
        <g id="Group_1463" data-name="Group 1463">
          <path id="Path_4911" data-name="Path 4911" d="M69.69,97.378,67.36,93.5a11.539,11.539,0,0,1-1.643-5.933v-3.4a9.5,9.5,0,0,0-18.99,0v3.4A11.539,11.539,0,0,1,45.085,93.5l-2.33,3.882a.678.678,0,0,0,.582,1.027H69.108a.678.678,0,0,0,.582-1.027Zm-25.156-.33,1.713-2.855a12.884,12.884,0,0,0,1.837-6.63v-3.4a8.139,8.139,0,1,1,16.277,0v3.4a12.9,12.9,0,0,0,1.835,6.63l1.715,2.855Z" transform="translate(-42.657 -74.667)"/>
        </g>
      </g>
      <g id="Group_1466" data-name="Group 1466" transform="translate(10.852)">
        <g id="Group_1465" data-name="Group 1465">
          <path id="Path_4912" data-name="Path 4912" d="M216.046,0a2.716,2.716,0,0,0-2.713,2.713V5.426a.678.678,0,0,0,1.356,0V2.713a1.356,1.356,0,0,1,2.713,0V5.426a.678.678,0,0,0,1.356,0V2.713A2.716,2.716,0,0,0,216.046,0Z" transform="translate(-213.333)"/>
        </g>
      </g>
      <g id="Group_1468" data-name="Group 1468" transform="translate(10.174 27.13)">
        <g id="Group_1467" data-name="Group 1467">
          <path id="Path_4913" data-name="Path 4913" d="M208.992,427.014a.679.679,0,0,0-1.172.686,2.035,2.035,0,1,1-3.524,0,.679.679,0,0,0-1.172-.686,3.392,3.392,0,1,0,5.868,0Z" transform="translate(-202.666 -426.679)"/>
        </g>
      </g>
    </g>
    <circle id="Ellipse_246" data-name="Ellipse 246" cx="6.124" cy="6.124" r="6.124" transform="translate(1169.904 41.892)" fill="#fff"/>
    <circle id="Ellipse_247" data-name="Ellipse 247" cx="4.675" cy="4.675" r="4.675" transform="translate(1171.354 43.342)" fill="#ff0909"/>
  </g>
</svg>
