<svg xmlns="http://www.w3.org/2000/svg" width="41.749" height="43.246" viewBox="0 0 41.749 43.246">
  <g id="Group_1568" data-name="Group 1568" transform="translate(-949 -82)">
    <g id="thinking" transform="translate(949 82)">
      <path id="Path_4914" data-name="Path 4914" d="M20.874,0A20.874,20.874,0,1,1,0,20.874,20.874,20.874,0,0,1,20.874,0Z" fill="#da3e7b"/>
      <path id="Path_4915" data-name="Path 4915" d="M89.616,257.215h5.5l.446,4.639,1.346.989,8.015,2.54a3.186,3.186,0,0,1,1.36,2.2c.064.334.121,2.991.173,5.28a20.872,20.872,0,0,1-28.2-.722c.033-1.96.081-4,.189-4.558a5.179,5.179,0,0,1,1.36-2.2l8.069-2.575,1.292-.954.446-4.64Z" transform="translate(-71.879 -236.242)" fill="#f0b97d"/>
      <path id="Path_4916" data-name="Path 4916" d="M87.873,325.813,79.8,328.388a5.179,5.179,0,0,0-1.36,2.2c-.108.563-.156,2.6-.189,4.558a20.872,20.872,0,0,0,28.2.722c-.052-2.288-.11-4.945-.173-5.28a3.186,3.186,0,0,0-1.36-2.2l-8.015-2.54C95.58,329.743,89.139,329.58,87.873,325.813Z" transform="translate(-71.874 -299.246)" fill="#673887"/>
      <path id="Path_4917" data-name="Path 4917" d="M158.129,81.561c-1.726-.306-.255,4.849,1.006,4.081l.677,1.987a14.976,14.976,0,0,0,3.317,4.71c.457.5,3.254.495,3.707.019,1.3-1.363,2.835-2.893,3.413-4.739l.619-1.977c1.263.768,2.731-4.386,1.006-4.081.119-4.013-2.718-7.906-6.872-7.924-4.154.018-6.992,3.911-6.872,7.924Z" transform="translate(-144.512 -67.633)" fill="#fed198"/>
      <path id="Path_4918" data-name="Path 4918" d="M174.285,61.549c.488-.057,2.249,1.552,2.46,3.416a15.634,15.634,0,0,1-.11,3.784c-.862.187-1.043,2.154-1.043,2.154l-.374.016-.266-1.342c-1.544-.968.609-4.791-.935-5.126a12.915,12.915,0,0,1-9.985,2.424c-.96.128.436,1.341.031,2.738a2.252,2.252,0,0,0-.121,1.344l-.447.056s-.276-2.335-1.138-2.326a5.488,5.488,0,0,1-.243-2.719c.4-5.328,7.174-8.672,12.169-4.418h0Z" transform="translate(-148.841 -54.755)"/>
      <path id="Path_4919" data-name="Path 4919" d="M194.3,326.165c-1.729,4.995-9.386,4.975-11.1-.014l1.061-.339c1.266,3.767,7.707,3.929,9.035.035l1,.318Z" transform="translate(-168.261 -299.246)" fill="#fff"/>
      <path id="Path_4920" data-name="Path 4920" d="M147.838,475l.088-1.161.283,1.33Q148.022,475.087,147.838,475Zm16.893.331h0c-.156.066-.313.129-.471.191l.358-1.683.113,1.492h0Z" transform="translate(-135.783 -435.203)" fill="#da3e7b"/>
      <path id="Path_4925" data-name="Path 4925" d="M319.674,408.877h1.081v.318h-1.081Z" transform="translate(-293.608 -375.537)" fill="#fff"/>
      <path id="Path_4926" data-name="Path 4926" d="M326.3,408.877h.54v.318h-.54Z" transform="translate(-299.695 -375.537)" fill="#ff5b61"/>
    </g>
    <g id="Group_1567" data-name="Group 1567" transform="translate(975.572 113.203)">
      <circle id="Ellipse_243" data-name="Ellipse 243" cx="6.021" cy="6.021" r="6.021" transform="translate(0 0)" fill="#fff"/>
      <circle id="Ellipse_244" data-name="Ellipse 244" cx="4.058" cy="4.058" r="4.058" transform="translate(1.964 1.964)" fill="#23df00"/>
    </g>
  </g>
</svg>
