<svg xmlns="http://www.w3.org/2000/svg" width="44" height="44" viewBox="0 0 44 44">
  <g id="Group_1634" data-name="Group 1634" transform="translate(-1262 -323)">
    <g id="Group_1630" data-name="Group 1630" transform="translate(1504 -908) rotate(90)">
      <g id="Group_1619" data-name="Group 1619" transform="translate(755 -34)">
        <g id="Rectangle_667" data-name="Rectangle 667" transform="translate(476 232)" fill="none" stroke="#fff" stroke-width="3">
          <rect width="44" height="44" rx="22" stroke="none"/>
          <rect x="1.5" y="1.5" width="41" height="41" rx="20.5" fill="none"/>
        </g>
      </g>
    </g>
    <g id="Group_1633" data-name="Group 1633" transform="translate(-4479.01 -3158.606)">
      <g id="wifi_1_" data-name="wifi (1)" transform="translate(5775.132 3494.466) rotate(90)">
        <g id="Group_1632" data-name="Group 1632" transform="translate(0 0)">
          <path id="Path_5083" data-name="Path 5083" d="M.41,3.659A1.4,1.4,0,0,0,2.4,5.645a9.709,9.709,0,0,1,13.713,0,1.4,1.4,0,1,0,1.981-1.987A12.511,12.511,0,0,0,.41,3.659Z" fill="#fff" stroke="#270433" stroke-width="0.5"/>
          <path id="Path_5084" data-name="Path 5084" d="M.41,2.088A1.4,1.4,0,0,0,2.4,4.074a4.331,4.331,0,0,1,6.126,0A1.4,1.4,0,0,0,10.5,2.093,7.138,7.138,0,0,0,.41,2.088Z" transform="translate(3.791 5.362)" fill="#fff" stroke="#270433" stroke-width="0.5"/>
          <circle id="Ellipse_269" data-name="Ellipse 269" cx="1.869" cy="1.869" r="1.869" transform="translate(7.381 10.625)" fill="#fff" stroke="#270433" stroke-width="0.5"/>
        </g>
      </g>
      <g id="wifi_1_2" data-name="wifi (1)" transform="translate(5750.014 3512.84) rotate(-89)">
        <g id="Group_1632-2" data-name="Group 1632" transform="translate(0 0)">
          <path id="Path_5083-2" data-name="Path 5083" d="M.41,3.659A1.4,1.4,0,0,0,2.4,5.645a9.709,9.709,0,0,1,13.713,0,1.4,1.4,0,1,0,1.981-1.987A12.511,12.511,0,0,0,.41,3.659Z" fill="#fff" stroke="#270433" stroke-width="0.5"/>
          <path id="Path_5084-2" data-name="Path 5084" d="M.41,2.088A1.4,1.4,0,0,0,2.4,4.074a4.331,4.331,0,0,1,6.126,0A1.4,1.4,0,0,0,10.5,2.093,7.138,7.138,0,0,0,.41,2.088Z" transform="translate(3.791 5.362)" fill="#fff" stroke="#270433" stroke-width="0.5"/>
          <circle id="Ellipse_269-2" data-name="Ellipse 269" cx="1.869" cy="1.869" r="1.869" transform="translate(7.381 10.625)" fill="#fff" stroke="#270433" stroke-width="0.5"/>
        </g>
      </g>
    </g>
  </g>
</svg>
