<svg xmlns="http://www.w3.org/2000/svg" width="51.673" height="54" viewBox="0 0 51.673 54">
  <g id="stopwatch" transform="translate(-1.293)">
    <path id="Path_4978" data-name="Path 4978" d="M34.1,35.077l8.427-11.65a.9.9,0,0,0-1.257-1.257L29.613,30.6A3.207,3.207,0,1,0,34.1,35.077Z" transform="translate(-2.7 -2.2)" fill="#da3e7b"/>
    <path id="Path_4979" data-name="Path 4979" d="M51.51,17.608c-.009-.019-.009-.039-.019-.058s-.028-.028-.04-.045a24.467,24.467,0,0,0-3.208-4.328l1.932-1.932,1.273,1.273L55.266,8.7,51.448,4.881,47.629,8.7,48.9,9.972,46.97,11.9a24.439,24.439,0,0,0-4.328-3.209c-.017-.012-.027-.029-.045-.04s-.039-.01-.058-.02a24.13,24.13,0,0,0-9.245-3.064V4.5h1.35a2.25,2.25,0,1,0,0-4.5h-8.1a2.25,2.25,0,0,0,0,4.5h1.35V5.54a24.754,24.754,0,0,0-2.9.481.9.9,0,0,0,.4,1.754,22.873,22.873,0,0,1,2.574-.436l.892-.067c.3-.023.572-.039.832-.051h0V9a.9.9,0,0,0,1.8,0V7.227a22.325,22.325,0,0,1,9.41,2.56l-.887,1.537a.9.9,0,1,0,1.559.9l.885-1.534a22.674,22.674,0,0,1,6.995,6.995l-1.533.885a.9.9,0,0,0,.9,1.559l1.536-.887A22.337,22.337,0,0,1,52.924,28.8H51.146a.9.9,0,0,0,0,1.8h1.778a22.338,22.338,0,0,1-2.564,9.557l-1.536-.887a.9.9,0,1,0-.9,1.559l1.533.885a22.674,22.674,0,0,1-6.995,6.995l-.885-1.533a.9.9,0,0,0-1.559.9l.887,1.536a22.325,22.325,0,0,1-9.41,2.561V50.4a.9.9,0,0,0-1.8,0v1.778a22.712,22.712,0,0,1-4.3-.555.9.9,0,1,0-.4,1.754A24.319,24.319,0,0,0,30.446,54c.044,0,.086,0,.131,0,.006,0,.011,0,.016,0s.014,0,.021,0a24.143,24.143,0,0,0,11.9-3.216.762.762,0,0,0,.085-.035c.018-.011.028-.028.045-.04a24.478,24.478,0,0,0,8.8-8.785.852.852,0,0,0,.054-.07c.011-.019.01-.039.019-.058a24.206,24.206,0,0,0,0-24.185Z" transform="translate(-2.3)" fill="#da3e7b"/>
    <path id="Path_4980" data-name="Path 4980" d="M21.593,13h-4.5a1.8,1.8,0,1,0,0,3.6h4.5a1.8,1.8,0,1,0,0-3.6Z" transform="translate(-1.4 -1.3)" fill="#da3e7b"/>
    <path id="Path_4981" data-name="Path 4981" d="M21.093,20h-9a1.8,1.8,0,0,0,0,3.6h9a1.8,1.8,0,1,0,0-3.6Z" transform="translate(-0.9 -2)" fill="#da3e7b"/>
    <path id="Path_4982" data-name="Path 4982" d="M20.593,27H7.093a1.8,1.8,0,1,0,0,3.6h13.5a1.8,1.8,0,0,0,0-3.6Z" transform="translate(-0.4 -2.7)" fill="#da3e7b"/>
    <path id="Path_4983" data-name="Path 4983" d="M20.193,34H3.093a1.8,1.8,0,0,0,0,3.6h17.1a1.8,1.8,0,0,0,0-3.6Z" transform="translate(0 -3.4)" fill="#da3e7b"/>
    <path id="Path_4984" data-name="Path 4984" d="M20.793,41H9.093a1.8,1.8,0,0,0,0,3.6h11.7a1.8,1.8,0,0,0,0-3.6Z" transform="translate(-0.6 -4.1)" fill="#da3e7b"/>
    <path id="Path_4985" data-name="Path 4985" d="M21.393,48h-6.3a1.8,1.8,0,0,0,0,3.6h6.3a1.8,1.8,0,0,0,0-3.6Z" transform="translate(-1.2 -4.8)" fill="#da3e7b"/>
  </g>
</svg>
