<svg xmlns="http://www.w3.org/2000/svg" width="51.055" height="51.055" viewBox="0 0 51.055 51.055">
  <g id="movie-tickets" transform="translate(-0.001)">
    <path id="Path_4931" data-name="Path 4931" d="M122.216,198.83a1,1,0,1,0-.705-.292A1,1,0,0,0,122.216,198.83Zm0,0" transform="translate(-109.131 -177.208)" fill="#da3e7b"/>
    <path id="Path_4932" data-name="Path 4932" d="M259.094,200.956a1,1,0,1,0,.291.7A1.006,1.006,0,0,0,259.094,200.956Zm0,0" transform="translate(-231.724 -180.655)" fill="#da3e7b"/>
    <path id="Path_4933" data-name="Path 4933" d="M293.388,167.658a1,1,0,1,0-.706-.292A1,1,0,0,0,293.388,167.658Zm0,0" transform="translate(-263.233 -149.145)" fill="#da3e7b"/>
    <path id="Path_4934" data-name="Path 4934" d="M48.064,24.53H45.282l4.9-4.9a2.992,2.992,0,0,0,0-4.231l-4.442-4.442a1,1,0,0,0-1.41,0A2.991,2.991,0,0,1,40.1,6.729a1,1,0,0,0,0-1.41L35.654.876a2.991,2.991,0,0,0-4.231,0L14.954,17.346a1,1,0,1,0,1.41,1.41L32.834,2.286a1,1,0,0,1,1.41,0l3.808,3.807A4.988,4.988,0,0,0,44.962,13l3.807,3.807a1,1,0,0,1,0,1.41L42.461,24.53H38.09l3.276-3.276a1,1,0,0,0,0-1.41L31.212,9.69a1,1,0,0,0-1.41,0L14.962,24.53H2.992A3,3,0,0,0,0,27.521V33.8a1,1,0,0,0,1,1,2.992,2.992,0,0,1,0,5.983,1,1,0,0,0-1,1v6.282a3,3,0,0,0,2.992,2.992H48.064a3,3,0,0,0,2.992-2.992V41.781a1,1,0,0,0-1-1,2.992,2.992,0,0,1,0-5.983,1,1,0,0,0,1-1V27.521a3,3,0,0,0-2.992-2.992ZM30.507,11.805l8.744,8.744L35.269,24.53H31.321l2.923-2.924a1,1,0,1,0-1.41-1.41L28.5,24.53H17.783Zm18.554,21.1a4.987,4.987,0,0,0,0,9.771v5.385a1,1,0,0,1-1,1H2.992a1,1,0,0,1-1-1V42.678a4.987,4.987,0,0,0,0-9.771V27.521a1,1,0,0,1,1-1H48.064a1,1,0,0,1,1,1Zm0,0" transform="translate(0 0)" fill="#da3e7b"/>
    <path id="Path_4935" data-name="Path 4935" d="M198.2,346.7a1,1,0,1,0-.7.292A1.006,1.006,0,0,0,198.2,346.7Zm0,0" transform="translate(-176.905 -310.594)" fill="#da3e7b"/>
    <path id="Path_4936" data-name="Path 4936" d="M297.2,346.7a1,1,0,1,0-.7.292A1.006,1.006,0,0,0,297.2,346.7Zm0,0" transform="translate(-266.033 -310.594)" fill="#da3e7b"/>
    <path id="Path_4937" data-name="Path 4937" d="M247.7,346.7a1,1,0,1,0-.7.292A1.006,1.006,0,0,0,247.7,346.7Zm0,0" transform="translate(-221.469 -310.594)" fill="#da3e7b"/>
    <path id="Path_4938" data-name="Path 4938" d="M148,346.99a1,1,0,1,0-.705-.292A1.005,1.005,0,0,0,148,346.99Zm0,0" transform="translate(-132.341 -310.594)" fill="#da3e7b"/>
    <path id="Path_4939" data-name="Path 4939" d="M346.7,346.7a1,1,0,1,0-.705.292A1.006,1.006,0,0,0,346.7,346.7Zm0,0" transform="translate(-310.597 -310.594)" fill="#da3e7b"/>
    <path id="Path_4940" data-name="Path 4940" d="M148,394.99h19.744a1,1,0,0,0,0-1.994H148a1,1,0,0,0,0,1.994Zm0,0" transform="translate(-132.341 -353.808)" fill="#da3e7b"/>
    <path id="Path_4941" data-name="Path 4941" d="M184.317,441a1,1,0,1,0,.705.292A1.005,1.005,0,0,0,184.317,441Zm0,0" transform="translate(-165.039 -397.021)" fill="#da3e7b"/>
    <path id="Path_4942" data-name="Path 4942" d="M125.311,297H95a1,1,0,0,0-1,1v14.359a1,1,0,0,0,1,1h4.154a1,1,0,1,0,0-1.994H95.994V298.99h28.32v12.365H108.125a1,1,0,1,0,0,1.994h17.186a1,1,0,0,0,1-1V297.993A1,1,0,0,0,125.311,297Zm0,0" transform="translate(-84.626 -267.381)" fill="#da3e7b"/>
  </g>
</svg>
