<svg xmlns="http://www.w3.org/2000/svg" width="56.172" height="56.172" viewBox="0 0 56.172 56.172">
  <path id="ticket" d="M24.609,41.288a.823.823,0,0,0,1.164-1.164l-4.189-4.189A.823.823,0,1,0,20.42,37.1Zm-9.724-9.724,2.177,2.177a.823.823,0,0,0,1.164-1.164L16.049,30.4a.823.823,0,0,0-1.164,1.164ZM26.029,11.232a.823.823,0,0,0,0,1.164l3.422,3.422a.823.823,0,0,0,1.164-1.164l-3.422-3.422A.823.823,0,0,0,26.029,11.232ZM48.574,30.363,25.249,53.687a2.864,2.864,0,0,1-4.053,0l-4.074-4.074a1.273,1.273,0,0,1-.237-1.5,6.509,6.509,0,0,0-8.829-8.829,1.216,1.216,0,0,1-.647.145.823.823,0,1,0-.089,1.643,2.852,2.852,0,0,0,1.524-.343,4.864,4.864,0,0,1,6.6,6.6,2.927,2.927,0,0,0,.518,3.447l4.074,4.074a4.509,4.509,0,0,0,6.38,0L49.737,31.526a.823.823,0,0,0-1.164-1.164ZM30.783,6.478a3.243,3.243,0,1,0,4.586,4.586h0a3.243,3.243,0,0,0-4.586-4.586ZM34.206,9.9a1.6,1.6,0,1,1,0-2.259A1.6,1.6,0,0,1,34.206,9.9ZM33.192,18.4a.823.823,0,0,0,0,1.164l3.422,3.423a.823.823,0,0,0,1.164-1.164L34.356,18.4A.823.823,0,0,0,33.192,18.4ZM22.383,16.243,9.919,28.708a2.2,2.2,0,0,0,0,3.1L24.361,46.254a2.2,2.2,0,0,0,3.1,0L39.93,33.79a2.194,2.194,0,0,0,0-3.1L25.488,16.243a2.2,2.2,0,0,0-3.1,0ZM26.3,45.091a.55.55,0,0,1-.777,0L11.083,30.648a.55.55,0,0,1,0-.777l3.662-3.662L29.964,41.428ZM38.766,31.849a.549.549,0,0,1,0,.777l-7.638,7.638L15.909,25.046l7.638-7.638a.55.55,0,0,1,.777,0L38.766,31.849S38.766,31.849,38.766,31.849Zm6.175-1.705a.823.823,0,0,0,0-1.164l-3.422-3.423a.823.823,0,0,0-1.164,1.164l3.422,3.423a.823.823,0,0,0,1.164,0ZM31.129,32.676a.5.5,0,0,1,.7.7.823.823,0,0,0,1.164,1.164,2.141,2.141,0,0,0-1.514-3.655h0a2.127,2.127,0,0,0-1.514.627.823.823,0,1,0,1.164,1.164ZM54.85,20.033l-4.074-4.074a2.928,2.928,0,0,0-3.447-.518,4.864,4.864,0,0,1-6.6-6.6A2.927,2.927,0,0,0,40.214,5.4L36.14,1.324a4.509,4.509,0,0,0-6.38,0L1.322,29.761a4.509,4.509,0,0,0,0,6.381l2.364,2.364A.823.823,0,0,0,4.85,37.342L2.486,34.978a2.865,2.865,0,0,1,0-4.053L30.923,2.487a2.864,2.864,0,0,1,4.053,0L39.05,6.561a1.273,1.273,0,0,1,.237,1.5,6.51,6.51,0,0,0,8.829,8.829,1.273,1.273,0,0,1,1.5.237L53.686,21.2a2.865,2.865,0,0,1,0,4.053l-2.255,2.255a.823.823,0,0,0,1.164,1.164l2.255-2.255a4.509,4.509,0,0,0,0-6.381ZM21.633,23.181A.823.823,0,1,0,22.8,24.344a.5.5,0,0,1,.7.7.823.823,0,0,0,1.163,1.164,2.141,2.141,0,1,0-3.028-3.028ZM24.414,28.9a2.676,2.676,0,0,0,2.855,2.855.823.823,0,1,0-.113-1.642,1.03,1.03,0,0,1-1.1-1.1.823.823,0,1,0-1.642-.113ZM48.94,25.8a.823.823,0,0,0,.582-1.4L47.81,22.689a.823.823,0,1,0-1.163,1.164l1.711,1.711A.82.82,0,0,0,48.94,25.8Z" transform="translate(0 -0.001)" fill="#da3e7b"/>
</svg>
