<svg xmlns="http://www.w3.org/2000/svg" width="50.655" height="50.288" viewBox="0 0 50.655 50.288">
  <g id="time-left_2_" data-name="time-left (2)" transform="translate(-0.001 -1.688)">
    <g id="Layer_2_16_" transform="translate(0 1.688)">
      <g id="Group_1609" data-name="Group 1609" transform="translate(0 0)">
        <path id="Path_4970" data-name="Path 4970" d="M255.6,423.216c-.418.1-.844.2-1.266.274a2.036,2.036,0,0,0,.742,4c.5-.093,1.011-.2,1.509-.328a2.036,2.036,0,0,0-.984-3.952Z" transform="translate(-225.154 -377.262)" fill="#da3e7b"/>
        <path id="Path_4971" data-name="Path 4971" d="M413.051,140.221a2.036,2.036,0,0,0,3.866-1.28c-.161-.486-.34-.975-.53-1.45A2.036,2.036,0,1,0,412.606,139C412.766,139.4,412.915,139.812,413.051,140.221Z" transform="translate(-367.547 -121.562)" fill="#da3e7b"/>
        <path id="Path_4972" data-name="Path 4972" d="M322.989,394.249c-.359.237-.73.467-1.1.682a2.036,2.036,0,1,0,2.035,3.528c.444-.256.886-.529,1.313-.811a2.036,2.036,0,0,0-2.245-3.4Z" transform="translate(-285.928 -351.202)" fill="#da3e7b"/>
        <path id="Path_4973" data-name="Path 4973" d="M431.705,209.268a2.036,2.036,0,1,0-4.07.16c.017.43.021.866.011,1.295a2.036,2.036,0,1,0,4.072.09C431.73,210.3,431.726,209.78,431.705,209.268Z" transform="translate(-381.07 -184.921)" fill="#da3e7b"/>
        <path id="Path_4974" data-name="Path 4974" d="M380.9,344.477a2.035,2.035,0,0,0-2.851.407c-.259.345-.531.685-.81,1.012a2.037,2.037,0,0,0,.23,2.87c.049.041.1.079.149.115a2.036,2.036,0,0,0,2.721-.345c.333-.391.657-.8.966-1.209A2.037,2.037,0,0,0,380.9,344.477Z" transform="translate(-335.731 -306.787)" fill="#da3e7b"/>
        <path id="Path_4975" data-name="Path 4975" d="M416.863,279.445a2.036,2.036,0,0,0-2.552,1.334c-.129.41-.271.822-.425,1.225a2.036,2.036,0,0,0,3.805,1.45c.183-.48.352-.97.506-1.457A2.037,2.037,0,0,0,416.863,279.445Z" transform="translate(-368.699 -249.117)" fill="#da3e7b"/>
        <path id="Path_4976" data-name="Path 4976" d="M21.56,47.934a21.027,21.027,0,0,1-5.223-1.66c-.02-.01-.037-.022-.058-.031-.39-.184-.78-.38-1.157-.586l-.006,0a21.723,21.723,0,0,1-2.026-1.266,21.249,21.249,0,0,1,.089-34.806l.073-.051a21.286,21.286,0,0,1,23.856-.191l-1.591,2.3c-.442.64-.17,1.106.6,1.036l6.911-.619a1.138,1.138,0,0,0,1.03-1.489L42.207,3.88c-.208-.75-.74-.839-1.182-.2l-1.595,2.3A25.148,25.148,0,0,0,21,2.066q-.978.169-1.928.412l-.013,0-.073.021A25.11,25.11,0,0,0,5.064,11.833c-.029.035-.059.069-.087.106-.116.156-.23.315-.342.474-.184.261-.365.528-.538.8-.022.032-.038.065-.057.1A25.106,25.106,0,0,0,.026,28.115c0,.017,0,.035,0,.052.023.511.063,1.029.118,1.538,0,.033.01.064.016.1.057.513.128,1.026.218,1.54A25.131,25.131,0,0,0,7.465,44.971L7.491,45l.009.008a25.658,25.658,0,0,0,3.244,2.711,25.108,25.108,0,0,0,10.1,4.226,2.036,2.036,0,0,0,.719-4.009Z" transform="translate(0 -1.688)" fill="#da3e7b"/>
        <path id="Path_4977" data-name="Path 4977" d="M207.635,83.2a1.648,1.648,0,0,0-1.648,1.648V101.26L221,109.021a1.647,1.647,0,0,0,1.513-2.927l-13.231-6.84V84.846A1.647,1.647,0,0,0,207.635,83.2Z" transform="translate(-183.557 -74.322)" fill="#da3e7b"/>
      </g>
    </g>
  </g>
</svg>
