<svg xmlns="http://www.w3.org/2000/svg" width="26.444" height="26.444" viewBox="0 0 26.444 26.444">
  <g id="hotel_1_" data-name="hotel (1)" transform="translate(0 0)">
    <g id="Group_1573" data-name="Group 1573" transform="translate(4.985 7.527)">
      <g id="Group_1572" data-name="Group 1572">
        <path id="Path_4946" data-name="Path 4946" d="M99.514,145.733H97.034a.516.516,0,0,0-.516.516v2.892a.516.516,0,0,0,.516.516h2.479a.516.516,0,0,0,.516-.516v-2.892A.516.516,0,0,0,99.514,145.733ZM99,148.625H97.551v-1.859H99Z" transform="translate(-96.518 -145.733)" fill="#f2ceff"/>
      </g>
    </g>
    <g id="Group_1575" data-name="Group 1575" transform="translate(4.985 13.311)">
      <g id="Group_1574" data-name="Group 1574">
        <path id="Path_4947" data-name="Path 4947" d="M99.514,257.733H97.034a.516.516,0,0,0-.516.517v2.892a.516.516,0,0,0,.516.516h2.479a.516.516,0,0,0,.516-.516V258.25A.516.516,0,0,0,99.514,257.733ZM99,260.625H97.551v-1.859H99Z" transform="translate(-96.518 -257.733)" fill="#f2ceff"/>
      </g>
    </g>
    <g id="Group_1577" data-name="Group 1577" transform="translate(4.985 19.096)">
      <g id="Group_1576" data-name="Group 1576">
        <path id="Path_4948" data-name="Path 4948" d="M99.514,369.733H97.034a.516.516,0,0,0-.516.516v2.892a.516.516,0,0,0,.516.516h2.479a.516.516,0,0,0,.516-.516v-2.892A.516.516,0,0,0,99.514,369.733ZM99,372.625H97.551v-1.859H99Z" transform="translate(-96.518 -369.733)" fill="#f2ceff"/>
      </g>
    </g>
    <g id="Group_1579" data-name="Group 1579" transform="translate(18.464 19.096)">
      <g id="Group_1578" data-name="Group 1578">
        <path id="Path_4949" data-name="Path 4949" d="M360.493,369.733h-2.479a.517.517,0,0,0-.516.516v2.892a.516.516,0,0,0,.516.516h2.479a.516.516,0,0,0,.516-.516v-2.892A.517.517,0,0,0,360.493,369.733Zm-.516,2.892H358.53v-1.859h1.446Z" transform="translate(-357.497 -369.733)" fill="#f2ceff"/>
      </g>
    </g>
    <g id="Group_1581" data-name="Group 1581" transform="translate(9.478 7.527)">
      <g id="Group_1580" data-name="Group 1580">
        <path id="Path_4950" data-name="Path 4950" d="M186.507,145.733h-2.479a.516.516,0,0,0-.516.516v2.892a.516.516,0,0,0,.516.516h2.479a.516.516,0,0,0,.516-.516v-2.892A.516.516,0,0,0,186.507,145.733Zm-.516,2.892h-1.446v-1.859h1.446Z" transform="translate(-183.511 -145.733)" fill="#f2ceff"/>
      </g>
    </g>
    <g id="Group_1583" data-name="Group 1583" transform="translate(13.971 7.527)">
      <g id="Group_1582" data-name="Group 1582">
        <path id="Path_4951" data-name="Path 4951" d="M273.5,145.733h-2.479a.516.516,0,0,0-.516.516v2.892a.516.516,0,0,0,.516.516H273.5a.516.516,0,0,0,.516-.516v-2.892A.516.516,0,0,0,273.5,145.733Zm-.516,2.892h-1.446v-1.859h1.446Z" transform="translate(-270.503 -145.733)" fill="#f2ceff"/>
      </g>
    </g>
    <g id="Group_1585" data-name="Group 1585" transform="translate(9.478 13.311)">
      <g id="Group_1584" data-name="Group 1584">
        <path id="Path_4952" data-name="Path 4952" d="M186.507,257.733h-2.479a.516.516,0,0,0-.516.517v2.892a.516.516,0,0,0,.516.516h2.479a.516.516,0,0,0,.516-.516V258.25A.516.516,0,0,0,186.507,257.733Zm-.516,2.892h-1.446v-1.859h1.446Z" transform="translate(-183.511 -257.733)" fill="#f2ceff"/>
      </g>
    </g>
    <g id="Group_1587" data-name="Group 1587" transform="translate(13.971 13.311)">
      <g id="Group_1586" data-name="Group 1586">
        <path id="Path_4953" data-name="Path 4953" d="M273.5,257.733h-2.479a.516.516,0,0,0-.516.517v2.892a.516.516,0,0,0,.516.516H273.5a.516.516,0,0,0,.516-.516V258.25A.517.517,0,0,0,273.5,257.733Zm-.516,2.892h-1.446v-1.859h1.446Z" transform="translate(-270.503 -257.733)" fill="#f2ceff"/>
      </g>
    </g>
    <g id="Group_1589" data-name="Group 1589" transform="translate(18.464 7.527)">
      <g id="Group_1588" data-name="Group 1588">
        <path id="Path_4954" data-name="Path 4954" d="M360.493,145.733h-2.479a.516.516,0,0,0-.516.516v2.892a.516.516,0,0,0,.516.516h2.479a.516.516,0,0,0,.516-.516v-2.892A.516.516,0,0,0,360.493,145.733Zm-.516,2.892H358.53v-1.859h1.446Z" transform="translate(-357.497 -145.733)" fill="#f2ceff"/>
      </g>
    </g>
    <g id="Group_1591" data-name="Group 1591" transform="translate(18.464 13.311)">
      <g id="Group_1590" data-name="Group 1590">
        <path id="Path_4955" data-name="Path 4955" d="M360.493,257.733h-2.479a.517.517,0,0,0-.516.517v2.892a.516.516,0,0,0,.516.516h2.479a.516.516,0,0,0,.516-.516V258.25A.517.517,0,0,0,360.493,257.733Zm-.516,2.892H358.53v-1.859h1.446Z" transform="translate(-357.497 -257.733)" fill="#f2ceff"/>
      </g>
    </g>
    <g id="Group_1593" data-name="Group 1593">
      <g id="Group_1592" data-name="Group 1592">
        <path id="Path_4956" data-name="Path 4956" d="M25.927,25.411H23.99V5.375a.516.516,0,0,0-.516-.516H20.607V3a.516.516,0,0,0-.516-.516H17.25V.516A.516.516,0,0,0,16.734,0H9.71a.516.516,0,0,0-.516.516V2.479H6.353A.516.516,0,0,0,5.837,3V4.858H2.97a.516.516,0,0,0-.516.516V25.411H.516a.516.516,0,0,0,0,1.033H25.927a.516.516,0,1,0,0-1.033ZM10.226,1.033h5.991V2.479H10.226Zm5.165,24.378H11.818l3.574-3.574Zm0-5.031c-.012.01-.023.02-.034.03l-4.3,4.3V22.526l3.313-3.313h1.026Zm-4.338.685V19.213H12.9Zm11.9,4.346H16.424v-6.2H16.6a.516.516,0,0,0,0-1.033H9.839a.516.516,0,1,0,0,1.033h.181v6.2H3.487V5.891H9.22a.516.516,0,0,0,0-1.033H6.87V3.512h12.7V4.858H13.3a.516.516,0,0,0,0,1.033h9.656Z" fill="#f2ceff"/>
      </g>
    </g>
    <g id="Group_1595" data-name="Group 1595" transform="translate(10.718 4.858)">
      <g id="Group_1594" data-name="Group 1594">
        <path id="Path_4957" data-name="Path 4957" d="M208.392,94.211a.516.516,0,1,0,.151.365A.52.52,0,0,0,208.392,94.211Z" transform="translate(-207.51 -94.06)" fill="#f2ceff"/>
      </g>
    </g>
  </g>
</svg>
