<svg xmlns="http://www.w3.org/2000/svg" width="25.8" height="19.155" viewBox="0 0 25.8 19.155">
  <g id="icon" transform="translate(0 -55.239)">
    <g id="Group_1523" data-name="Group 1523" transform="translate(0 55.239)">
      <path id="Path_1309" data-name="Path 1309" d="M147.4,192.678a1.054,1.054,0,0,0,0-2.108l-4.773-3.511,3.72,4.63A1.057,1.057,0,0,0,147.4,192.678Z" transform="translate(-134.049 -179.131)" fill="#f2ceff"/>
      <rect id="Rectangle_444" data-name="Rectangle 444" width="10.522" height="2.497" transform="translate(7.639 16.658)" fill="#f2ceff"/>
      <path id="Path_1310" data-name="Path 1310" d="M22.021,59.017A12.9,12.9,0,0,0,1.613,74.394H4.024l1.763-1.018-.779-1.349L2.741,73.336a11.344,11.344,0,0,1-1.254-5.2c0-.331.015-.659.043-.983l2.7.477L4.5,66.1l-2.736-.482a11.408,11.408,0,0,1,3.113-5.59l1.853,2.209,1.193-1L6.061,59.008a11.349,11.349,0,0,1,6.06-2.255v2.954h1.558V56.754a11.351,11.351,0,0,1,6.06,2.255l-1.868,2.225,1.193,1,1.853-2.209a11.409,11.409,0,0,1,3.113,5.59L21.3,66.1l.271,1.534,2.7-.477c.028.324.043.652.043.983a11.342,11.342,0,0,1-1.254,5.2l-2.268-1.309-.779,1.349,1.763,1.018h2.411a12.913,12.913,0,0,0-2.165-15.376Z" transform="translate(0 -55.239)" fill="#f2ceff"/>
    </g>
  </g>
</svg>
