<svg xmlns="http://www.w3.org/2000/svg" width="26.347" height="26.347" viewBox="0 0 26.347 26.347">
  <g id="statistics_2_" data-name="statistics (2)" transform="translate(0 0)">
    <path id="Path_4943" data-name="Path 4943" d="M33.316,12.35a2.307,2.307,0,0,0,1.606-.65l2.272,1.136a2.315,2.315,0,1,0,4.387-.712l3.088-3.088a2.316,2.316,0,0,0,3.208-2.782l2.683-2.012a2.313,2.313,0,1,0-.927-1.234L46.949,5.02a2.315,2.315,0,0,0-3.372,2.925l-3.088,3.088a2.311,2.311,0,0,0-2.6.423L35.613,10.32a2.315,2.315,0,1,0-2.3,2.03ZM51.841,1.544a.772.772,0,1,1-.772.772A.773.773,0,0,1,51.841,1.544ZM45.666,6.175a.772.772,0,1,1-.772.772A.773.773,0,0,1,45.666,6.175ZM39.491,12.35a.772.772,0,1,1-.772.772A.773.773,0,0,1,39.491,12.35ZM33.316,9.263a.772.772,0,1,1-.772.772A.773.773,0,0,1,33.316,9.263Zm0,0" transform="translate(-29.405)" fill="#f2ceff"/>
    <path id="Path_4944" data-name="Path 4944" d="M25.575,167.084h-.823V150.772A.772.772,0,0,0,23.98,150H20.892a.772.772,0,0,0-.772.772v16.313H18.577V155.4a.772.772,0,0,0-.772-.772H14.717a.772.772,0,0,0-.772.772v11.681H12.4v-5.506a.772.772,0,0,0-.772-.772H8.542a.772.772,0,0,0-.772.772v5.506H6.227v-8.594a.772.772,0,0,0-.772-.772H2.367a.772.772,0,0,0-.772.772v8.594H.772a.772.772,0,0,0,0,1.544h24.8a.772.772,0,0,0,0-1.544Zm-3.911-15.541h1.544v15.541H21.664Zm-6.175,4.631h1.544v10.909H15.489ZM9.314,162.35h1.544v4.734H9.314Zm-6.175-3.088H4.683v7.822H3.139Zm0,0" transform="translate(0 -142.281)" fill="#f2ceff"/>
  </g>
</svg>
