<svg xmlns="http://www.w3.org/2000/svg" width="25" height="25" viewBox="0 0 25 25">
  <g id="settings_5_" data-name="settings (5)" transform="translate(0.001 0)">
    <g id="Group_1597" data-name="Group 1597" transform="translate(0 8.438)">
      <g id="Group_1596" data-name="Group 1596" transform="translate(0)">
        <path id="Path_4958" data-name="Path 4958" d="M16.057,182.368c-.263-.158-.533-.317-.8-.472a6.986,6.986,0,0,0,0-1.627c.271-.156.54-.315.8-.472a1.054,1.054,0,0,0,.427-1.3h0l-.575-1.388a1.054,1.054,0,0,0-1.22-.617c-.3.074-.6.152-.9.233a6.987,6.987,0,0,0-1.151-1.15c.081-.3.159-.6.233-.9a1.054,1.054,0,0,0-.617-1.22l-1.388-.575a1.054,1.054,0,0,0-1.3.427c-.158.262-.317.532-.472.8a6.988,6.988,0,0,0-1.627,0c-.156-.271-.315-.541-.472-.8a1.054,1.054,0,0,0-1.3-.427l-1.388.575a1.054,1.054,0,0,0-.617,1.22c.074.3.152.6.233.9a6.985,6.985,0,0,0-1.15,1.151c-.3-.081-.606-.16-.9-.233a1.054,1.054,0,0,0-1.22.617L.079,178.5a1.054,1.054,0,0,0,.427,1.3c.262.158.532.316.8.472a6.991,6.991,0,0,0,0,1.627c-.27.156-.54.315-.8.472a1.054,1.054,0,0,0-.427,1.3l.575,1.388a1.054,1.054,0,0,0,1.22.617c.3-.074.6-.152.9-.233a6.991,6.991,0,0,0,1.151,1.15c-.081.3-.16.605-.233.9a1.054,1.054,0,0,0,.617,1.22l1.388.575a1.037,1.037,0,0,0,.4.079,1.054,1.054,0,0,0,.9-.506c.156-.26.315-.53.472-.8a7,7,0,0,0,1.627,0c.155.269.314.539.472.8a1.054,1.054,0,0,0,1.3.427l1.388-.575a1.054,1.054,0,0,0,.617-1.22c-.073-.295-.152-.6-.233-.9a6.989,6.989,0,0,0,1.15-1.15c.3.081.6.159.9.233a1.054,1.054,0,0,0,1.22-.617l.575-1.388A1.054,1.054,0,0,0,16.057,182.368Zm-1.159,2.2c-.285-.071-.576-.147-.864-.225a1.046,1.046,0,0,0-1.1.367,5.867,5.867,0,0,1-1.024,1.024,1.045,1.045,0,0,0-.366,1.1c.078.291.154.581.225.864l-1.275.528c-.152-.253-.3-.512-.452-.77a1.046,1.046,0,0,0-1.036-.518,5.872,5.872,0,0,1-1.448,0,1.045,1.045,0,0,0-1.037.518c-.15.261-.3.52-.452.77L4.793,187.7c.071-.285.147-.575.225-.864a1.045,1.045,0,0,0-.367-1.1,5.868,5.868,0,0,1-1.024-1.024,1.045,1.045,0,0,0-1.1-.366c-.289.078-.58.153-.864.225L1.136,183.3c.252-.151.511-.3.77-.452a1.045,1.045,0,0,0,.519-1.036,5.874,5.874,0,0,1,0-1.448,1.045,1.045,0,0,0-.518-1.037c-.259-.149-.518-.3-.77-.452l.528-1.275c.284.071.575.147.864.225a1.046,1.046,0,0,0,1.1-.367,5.866,5.866,0,0,1,1.024-1.024,1.045,1.045,0,0,0,.366-1.1c-.078-.288-.153-.579-.225-.864l1.275-.528c.151.251.3.51.452.77a1.045,1.045,0,0,0,1.036.518,5.864,5.864,0,0,1,1.448,0,1.045,1.045,0,0,0,1.037-.518c.149-.259.3-.518.452-.77l1.275.528c-.071.285-.147.575-.225.864a1.045,1.045,0,0,0,.367,1.1,5.869,5.869,0,0,1,1.024,1.024,1.045,1.045,0,0,0,1.1.366c.289-.078.579-.153.864-.225l.528,1.275c-.252.151-.51.3-.77.452a1.045,1.045,0,0,0-.519,1.036,5.868,5.868,0,0,1,0,1.448,1.046,1.046,0,0,0,.518,1.037c.259.149.517.3.77.452Z" transform="translate(0 -172.801)" fill="#f2ceff"/>
      </g>
    </g>
    <g id="Group_1599" data-name="Group 1599" transform="translate(4.467 12.905)">
      <g id="Group_1598" data-name="Group 1598">
        <path id="Path_4959" data-name="Path 4959" d="M98.831,266.647h0a3.818,3.818,0,1,0-2.064,4.983A3.818,3.818,0,0,0,98.831,266.647ZM96.339,270.6a2.695,2.695,0,1,1,1.458-3.521A2.677,2.677,0,0,1,96.339,270.6Z" transform="translate(-91.494 -264.293)" fill="#f2ceff"/>
      </g>
    </g>
    <g id="Group_1601" data-name="Group 1601" transform="translate(12.297)">
      <g id="Group_1600" data-name="Group 1600">
        <path id="Path_4960" data-name="Path 4960" d="M263.8,4.929c-.193-.029-.392-.057-.591-.084a5.207,5.207,0,0,0-.4-.968c.122-.16.243-.32.359-.477a.892.892,0,0,0-.087-1.153l-.772-.772a.891.891,0,0,0-1.154-.087c-.158.117-.318.237-.477.359a5.208,5.208,0,0,0-.968-.4c-.027-.2-.055-.4-.084-.591A.892.892,0,0,0,258.744,0h-1.092a.892.892,0,0,0-.877.754c-.029.193-.057.391-.084.591a5.206,5.206,0,0,0-.968.4c-.159-.122-.32-.242-.477-.359a.892.892,0,0,0-1.154.087l-.772.772a.892.892,0,0,0-.087,1.154c.116.157.237.318.359.477a5.216,5.216,0,0,0-.4.968c-.2.027-.4.055-.591.084a.892.892,0,0,0-.754.877V6.9a.892.892,0,0,0,.754.877c.193.029.392.057.591.084a5.215,5.215,0,0,0,.4.968c-.122.16-.243.32-.359.477a.892.892,0,0,0,.087,1.153l.772.772a.892.892,0,0,0,1.154.087c.158-.117.318-.237.477-.359a5.209,5.209,0,0,0,.968.4c.027.2.055.4.084.591a.892.892,0,0,0,.877.754h1.092a.892.892,0,0,0,.877-.754c.029-.193.057-.392.084-.591a5.2,5.2,0,0,0,.968-.4c.159.122.32.242.477.359a.892.892,0,0,0,1.154-.087l.772-.772a.892.892,0,0,0,.087-1.154c-.117-.158-.237-.318-.359-.477a5.214,5.214,0,0,0,.4-.968c.2-.027.4-.055.591-.084a.892.892,0,0,0,.754-.877V5.806A.892.892,0,0,0,263.8,4.929Zm-.309,1.817c-.175.025-.354.05-.534.074a.884.884,0,0,0-.741.642,4.137,4.137,0,0,1-.391.944.884.884,0,0,0,.069.978c.11.143.219.287.326.43l-.557.557c-.143-.107-.287-.216-.43-.326a.885.885,0,0,0-.978-.069,4.14,4.14,0,0,1-.944.391.884.884,0,0,0-.642.74c-.023.18-.048.359-.074.534H257.8c-.025-.175-.05-.354-.074-.534a.884.884,0,0,0-.642-.741,4.138,4.138,0,0,1-.944-.391.884.884,0,0,0-.978.069c-.143.11-.287.219-.43.326l-.557-.557c.106-.143.215-.287.326-.43a.885.885,0,0,0,.069-.978,4.139,4.139,0,0,1-.391-.944.884.884,0,0,0-.74-.642c-.18-.023-.359-.048-.534-.074V5.958c.175-.025.354-.05.534-.074a.884.884,0,0,0,.74-.642,4.138,4.138,0,0,1,.391-.944.885.885,0,0,0-.069-.978c-.11-.143-.219-.287-.326-.43l.557-.557c.143.107.287.216.43.326a.884.884,0,0,0,.978.069,4.141,4.141,0,0,1,.944-.391.884.884,0,0,0,.642-.74c.023-.18.048-.358.074-.534h.788c.025.175.05.354.073.534a.884.884,0,0,0,.642.741,4.14,4.14,0,0,1,.944.391.884.884,0,0,0,.978-.069c.143-.11.287-.219.43-.326l.557.557c-.106.142-.215.286-.326.43a.885.885,0,0,0-.069.978,4.143,4.143,0,0,1,.391.944.884.884,0,0,0,.74.642c.18.023.359.048.534.074Z" transform="translate(-251.847)" fill="#f2ceff"/>
      </g>
    </g>
    <g id="Group_1603" data-name="Group 1603" transform="translate(16.383 4.086)">
      <g id="Group_1602" data-name="Group 1602">
        <path id="Path_4961" data-name="Path 4961" d="M337.789,83.675a2.266,2.266,0,1,0,2.266,2.266A2.268,2.268,0,0,0,337.789,83.675Zm0,3.524a1.259,1.259,0,1,1,1.259-1.259A1.26,1.26,0,0,1,337.789,87.2Z" transform="translate(-335.523 -83.675)" fill="#f2ceff"/>
      </g>
    </g>
  </g>
</svg>
