<svg xmlns="http://www.w3.org/2000/svg" width="25.8" height="25.799" viewBox="0 0 25.8 25.799">
  <g id="movie-tickets" transform="translate(-0.001 0)">
    <path id="Path_4931" data-name="Path 4931" d="M121.723,197.844a.5.5,0,1,0-.356-.148A.508.508,0,0,0,121.723,197.844Zm0,0" transform="translate(-115.11 -186.917)" fill="#f2ceff"/>
    <path id="Path_4932" data-name="Path 4932" d="M258.251,200.812a.5.5,0,1,0,.147.356A.508.508,0,0,0,258.251,200.812Zm0,0" transform="translate(-244.42 -190.553)" fill="#f2ceff"/>
    <path id="Path_4933" data-name="Path 4933" d="M292.894,166.672a.5.5,0,1,0-.357-.148A.507.507,0,0,0,292.894,166.672Zm0,0" transform="translate(-277.656 -157.316)" fill="#f2ceff"/>
    <path id="Path_4934" data-name="Path 4934" d="M24.289,12.4H22.883l2.475-2.475a1.512,1.512,0,0,0,0-2.138L23.113,5.538a.5.5,0,0,0-.713,0A1.512,1.512,0,0,1,20.262,3.4a.5.5,0,0,0,0-.713L18.018.443a1.511,1.511,0,0,0-2.138,0L7.557,8.765a.5.5,0,0,0,.713.713l8.322-8.322a.5.5,0,0,1,.713,0l1.924,1.924a2.521,2.521,0,0,0,3.492,3.492L24.645,8.5a.5.5,0,0,1,0,.713L21.457,12.4H19.248L20.9,10.74a.5.5,0,0,0,0-.713L15.773,4.9a.5.5,0,0,0-.713,0l-7.5,7.5H1.512A1.513,1.513,0,0,0,0,13.907v3.175a.5.5,0,0,0,.5.5,1.512,1.512,0,1,1,0,3.023.5.5,0,0,0-.5.5v3.175A1.513,1.513,0,0,0,1.512,25.8H24.289A1.513,1.513,0,0,0,25.8,24.288V21.113a.5.5,0,0,0-.5-.5,1.512,1.512,0,0,1,0-3.023.5.5,0,0,0,.5-.5V13.907A1.513,1.513,0,0,0,24.289,12.4Zm-8.872-6.43,4.418,4.418L17.823,12.4h-2L17.3,10.918a.5.5,0,0,0-.713-.713L14.4,12.4H8.986Zm9.376,10.663a2.52,2.52,0,0,0,0,4.938v2.721a.5.5,0,0,1-.5.5H1.512a.5.5,0,0,1-.5-.5V21.567a2.52,2.52,0,0,0,0-4.938V13.907a.5.5,0,0,1,.5-.5H24.289a.5.5,0,0,1,.5.5Zm0,0" transform="translate(0 0)" fill="#f2ceff"/>
    <path id="Path_4935" data-name="Path 4935" d="M197.36,345.856A.5.5,0,1,0,197,346,.508.508,0,0,0,197.36,345.856Zm0,0" transform="translate(-186.597 -327.611)" fill="#f2ceff"/>
    <path id="Path_4936" data-name="Path 4936" d="M296.36,345.856A.5.5,0,1,0,296,346,.508.508,0,0,0,296.36,345.856Zm0,0" transform="translate(-280.609 -327.611)" fill="#f2ceff"/>
    <path id="Path_4937" data-name="Path 4937" d="M246.86,345.856a.5.5,0,1,0-.356.148A.508.508,0,0,0,246.86,345.856Zm0,0" transform="translate(-233.603 -327.611)" fill="#f2ceff"/>
    <path id="Path_4938" data-name="Path 4938" d="M147.5,346a.5.5,0,1,0-.356-.148A.508.508,0,0,0,147.5,346Zm0,0" transform="translate(-139.592 -327.612)" fill="#f2ceff"/>
    <path id="Path_4939" data-name="Path 4939" d="M345.86,345.856a.5.5,0,1,0-.356.148A.508.508,0,0,0,345.86,345.856Zm0,0" transform="translate(-327.614 -327.611)" fill="#f2ceff"/>
    <path id="Path_4940" data-name="Path 4940" d="M147.5,394h9.977a.5.5,0,1,0,0-1.008H147.5a.5.5,0,1,0,0,1.008Zm0,0" transform="translate(-139.592 -373.193)" fill="#f2ceff"/>
    <path id="Path_4941" data-name="Path 4941" d="M183.824,441a.5.5,0,1,0,.356.148A.508.508,0,0,0,183.824,441Zm0,0" transform="translate(-174.082 -418.774)" fill="#f2ceff"/>
    <path id="Path_4942" data-name="Path 4942" d="M109.822,297H94.5a.5.5,0,0,0-.5.5v7.256a.5.5,0,0,0,.5.5h2.1a.5.5,0,1,0,0-1.008h-1.6V298h14.311v6.248h-8.181a.5.5,0,1,0,0,1.008h8.684a.5.5,0,0,0,.5-.5V297.5A.5.5,0,0,0,109.822,297Zm0,0" transform="translate(-89.263 -282.03)" fill="#f2ceff"/>
  </g>
</svg>
