<svg xmlns="http://www.w3.org/2000/svg" width="29.302" height="28.028" viewBox="0 0 29.302 28.028">
  <g id="logout_7_" data-name="logout (7)" transform="translate(0 -0.332)">
    <path id="Path_4963" data-name="Path 4963" d="M168.761,220.911H150.288a.956.956,0,1,1,0-1.911h18.473a.956.956,0,1,1,0,1.911Zm0,0" transform="translate(-140.414 -205.609)"/>
    <path id="Path_4964" data-name="Path 4964" d="M155.391,145.756a.948.948,0,0,1-.675-.28l-5.1-5.1a.956.956,0,0,1,0-1.352l5.1-5.1a.956.956,0,0,1,1.352,1.352l-4.421,4.421,4.421,4.421a.955.955,0,0,1-.676,1.631Zm0,0" transform="translate(-140.421 -125.359)"/>
    <path id="Path_4965" data-name="Path 4965" d="M14.014,28.36A14.014,14.014,0,1,1,27.057,9.22a.956.956,0,1,1-1.779.7,12.1,12.1,0,1,0,0,8.856.956.956,0,1,1,1.779.7A13.943,13.943,0,0,1,14.014,28.36Zm0,0"/>
  </g>
</svg>
