<svg xmlns="http://www.w3.org/2000/svg" width="42" height="42" viewBox="0 0 42 42">
  <g id="Group_1634" data-name="Group 1634" transform="translate(-1262 -323)">
    <g id="Group_1630" data-name="Group 1630" transform="translate(1304 323) rotate(90)">
      <g id="Group_1619" data-name="Group 1619" transform="translate(0 0)">
        <g id="Rectangle_667" data-name="Rectangle 667" fill="none" stroke="#fff" stroke-width="3">
          <rect width="42" height="42" rx="21" stroke="none"/>
          <rect x="1.5" y="1.5" width="39" height="39" rx="19.5" fill="none"/>
        </g>
      </g>
    </g>
    <g id="Group_1633" data-name="Group 1633" transform="translate(1270.595 335.157)">
      <g id="wifi_1_" data-name="wifi (1)" transform="translate(23.977 0.118) rotate(90)">
        <g id="Group_1632" data-name="Group 1632" transform="translate(0 0)">
          <path id="Path_5083" data-name="Path 5083" d="M.391,3.492a1.341,1.341,0,0,0,1.9,1.9,9.267,9.267,0,0,1,13.09,0,1.339,1.339,0,1,0,1.891-1.9A11.942,11.942,0,0,0,.391,3.492Z" fill="#fff" stroke="#da3e7b" stroke-width="0.5"/>
          <path id="Path_5084" data-name="Path 5084" d="M.391,1.993a1.341,1.341,0,0,0,1.9,1.9,4.134,4.134,0,0,1,5.847,0A1.337,1.337,0,1,0,10.026,2,6.813,6.813,0,0,0,.391,1.993Z" transform="translate(3.619 5.118)" fill="#fff" stroke="#da3e7b" stroke-width="0.5"/>
          <circle id="Ellipse_269" data-name="Ellipse 269" cx="1.784" cy="1.784" r="1.784" transform="translate(7.046 10.142)" fill="#fff" stroke="#da3e7b" stroke-width="0.5"/>
        </g>
      </g>
      <g id="wifi_1_2" data-name="wifi (1)" transform="translate(0 17.657) rotate(-89)">
        <g id="Group_1632-2" data-name="Group 1632" transform="translate(0 0)">
          <path id="Path_5083-2" data-name="Path 5083" d="M.391,3.492a1.341,1.341,0,0,0,1.9,1.9,9.267,9.267,0,0,1,13.09,0,1.339,1.339,0,1,0,1.891-1.9A11.942,11.942,0,0,0,.391,3.492Z" fill="#fff" stroke="#da3e7b" stroke-width="0.5"/>
          <path id="Path_5084-2" data-name="Path 5084" d="M.391,1.993a1.341,1.341,0,0,0,1.9,1.9,4.134,4.134,0,0,1,5.847,0A1.337,1.337,0,1,0,10.026,2,6.813,6.813,0,0,0,.391,1.993Z" transform="translate(3.619 5.118)" fill="#fff" stroke="#da3e7b" stroke-width="0.5"/>
          <circle id="Ellipse_269-2" data-name="Ellipse 269" cx="1.784" cy="1.784" r="1.784" transform="translate(7.046 10.142)" fill="#fff" stroke="#da3e7b" stroke-width="0.5"/>
        </g>
      </g>
    </g>
  </g>
</svg>
