<svg xmlns="http://www.w3.org/2000/svg" width="44" height="44" viewBox="0 0 44 44">
  <g id="Group_1971" data-name="Group 1971" transform="translate(-1285 -200)">
    <g id="Group_1620" data-name="Group 1620" transform="translate(1561 -276) rotate(90)">
      <rect id="Rectangle_667" data-name="Rectangle 667" width="44" height="44" rx="22" transform="translate(476 232)" fill="#da3e7b"/>
    </g>
    <g id="refresh_4_" data-name="refresh (4)" transform="translate(1240.362 206)">
      <g id="Group_1970" data-name="Group 1970" transform="translate(54.637 0)">
        <path id="Path_5465" data-name="Path 5465" d="M54.716,16.616A11.853,11.853,0,0,1,66.343,3.4V.21A.228.228,0,0,1,66.71.045l6.556,4.817a.2.2,0,0,1,0,.322L66.716,10a.228.228,0,0,1-.367-.164V6.658a8.583,8.583,0,0,0-7.764,5.26,8.477,8.477,0,0,0,1.208,8.642,1.637,1.637,0,1,1-2.573,2.023A11.69,11.69,0,0,1,54.716,16.616ZM73.645,10.5a8.477,8.477,0,0,1,1.208,8.642,8.573,8.573,0,0,1-7.764,5.26v-3.18a.228.228,0,0,0-.367-.164l-6.556,4.817a.2.2,0,0,0,0,.322l6.55,4.817a.228.228,0,0,0,.367-.164V27.661a11.853,11.853,0,0,0,11.626-13.22,11.629,11.629,0,0,0-2.5-5.968A1.634,1.634,0,1,0,73.645,10.5Z" transform="translate(-54.637 0)" fill="#fff" stroke="#da3e7b" stroke-width="1"/>
      </g>
    </g>
  </g>
</svg>
