<svg xmlns="http://www.w3.org/2000/svg" width="49.177" height="48.857" viewBox="0 0 49.177 48.857">
  <g id="Group_1969" data-name="Group 1969" transform="translate(-222.011 -497.472)">
    <path id="Path_5451" data-name="Path 5451" d="M255.455,423.213c-.4.1-.8.187-1.2.261a1.937,1.937,0,0,0,.706,3.809c.479-.089.961-.193,1.435-.311a1.936,1.936,0,0,0-.936-3.758Z" transform="translate(-3.989 118.491)" fill="#fff" stroke="#fb9980" stroke-width="1"/>
    <path id="Path_5452" data-name="Path 5452" d="M413.022,140.025a1.937,1.937,0,0,0,3.677-1.218c-.153-.463-.323-.927-.5-1.379a1.936,1.936,0,1,0-3.6,1.438C412.751,139.246,412.893,139.636,413.022,140.025Z" transform="translate(-147.233 375.721)" fill="#fff" stroke="#fb9980" stroke-width="1"/>
    <path id="Path_5453" data-name="Path 5453" d="M322.885,394.232c-.342.226-.694.444-1.049.648a1.937,1.937,0,1,0,1.935,3.355c.422-.244.842-.5,1.249-.772a1.937,1.937,0,0,0-2.135-3.232Z" transform="translate(-65.125 144.707)" fill="#fff" stroke="#fb9980" stroke-width="1"/>
    <path id="Path_5454" data-name="Path 5454" d="M431.506,209.172a1.937,1.937,0,1,0-3.87.152c.016.409.02.823.011,1.231a1.937,1.937,0,1,0,3.872.086C431.529,210.154,431.525,209.659,431.506,209.172Z" transform="translate(-160.837 311.983)" fill="#fff" stroke="#fb9980" stroke-width="1"/>
    <path id="Path_5455" data-name="Path 5455" d="M380.7,344.457a1.936,1.936,0,0,0-2.712.387c-.246.328-.5.651-.77.963a1.937,1.937,0,0,0,.219,2.73c.046.039.093.076.142.109a1.937,1.937,0,0,0,2.588-.328c.317-.372.625-.758.919-1.15A1.937,1.937,0,0,0,380.7,344.457Z" transform="translate(-115.227 189.388)" fill="#fff" stroke="#fb9980" stroke-width="1"/>
    <path id="Path_5456" data-name="Path 5456" d="M416.711,279.441a1.937,1.937,0,0,0-2.427,1.269c-.122.39-.258.782-.4,1.165a1.936,1.936,0,0,0,3.619,1.379c.174-.456.335-.922.481-1.386A1.937,1.937,0,0,0,416.711,279.441Z" transform="translate(-148.391 247.403)" fill="#fff" stroke="#fb9980" stroke-width="1"/>
    <path id="Path_5457" data-name="Path 5457" d="M20.5,45.67a20,20,0,0,1-4.967-1.579c-.019-.01-.035-.021-.055-.03-.371-.175-.742-.362-1.1-.557l-.005,0a20.66,20.66,0,0,1-1.927-1.2,20.209,20.209,0,0,1,.084-33.1l.069-.048a20.244,20.244,0,0,1,22.688-.182l-1.513,2.186c-.421.609-.162,1.052.575.986l6.572-.588a1.083,1.083,0,0,0,.98-1.416L40.14,3.773c-.2-.713-.7-.8-1.125-.19L37.5,5.774A23.917,23.917,0,0,0,19.974,2.048q-.93.161-1.834.391l-.012,0-.07.02A23.88,23.88,0,0,0,4.816,11.336c-.028.033-.057.065-.083.1-.11.148-.219.3-.326.451-.175.248-.347.5-.511.757-.021.031-.036.062-.054.093A23.876,23.876,0,0,0,.025,26.821c0,.016,0,.033,0,.05.022.486.06.978.113,1.463,0,.031.01.061.015.092.054.488.122.976.207,1.465A23.9,23.9,0,0,0,7.1,42.852l.025.026.009.008a24.4,24.4,0,0,0,3.085,2.578,23.879,23.879,0,0,0,9.6,4.019A1.937,1.937,0,0,0,20.5,45.67Z" transform="translate(222.513 496.313)" fill="#fff" stroke="#fb9980" stroke-width="1"/>
    <path id="Path_5458" data-name="Path 5458" d="M207.555,83.2a1.567,1.567,0,0,0-1.568,1.567v15.611l14.277,7.381a1.567,1.567,0,0,0,1.439-2.784L209.12,98.468v-13.7A1.567,1.567,0,0,0,207.555,83.2Z" transform="translate(37.858 423.243)" fill="#fff" stroke="#fb9980" stroke-width="1"/>
  </g>
</svg>
