<svg xmlns="http://www.w3.org/2000/svg" width="64.069" height="50.658" viewBox="0 0 64.069 50.658">
  <path id="Path_5446" data-name="Path 5446" d="M61.036,67.264l-15.42-15.42a2.2,2.2,0,0,0-3.76,1.558V60.01H26.434a2.2,2.2,0,1,0,0,4.406H44.058a2.2,2.2,0,0,0,2.2-2.2V58.719l10.1,10.1-10.1,10.1V75.43a2.2,2.2,0,0,0-2.2-2.2H19.826V66.618a2.2,2.2,0,0,0-3.76-1.557L.645,80.481a2.2,2.2,0,0,0,0,3.115l15.42,15.42a2.2,2.2,0,0,0,1.557.646,2.175,2.175,0,0,0,.844-.167,2.2,2.2,0,0,0,1.359-2.036V90.85h15.42a2.2,2.2,0,1,0,0-4.406H17.623a2.2,2.2,0,0,0-2.2,2.2v3.494l-10.1-10.1,10.1-10.1V75.43a2.2,2.2,0,0,0,2.2,2.2H41.855v6.609a2.2,2.2,0,0,0,3.76,1.557l15.42-15.42A2.2,2.2,0,0,0,61.036,67.264Z" transform="translate(1.194 -50.004)" fill="#fff" stroke="#09cd89" stroke-width="2"/>
</svg>
