<svg xmlns="http://www.w3.org/2000/svg" width="58.091" height="26.814" viewBox="0 0 58.091 26.814">
  <path id="Path_5464" data-name="Path 5464" d="M20.042,36.4a1.672,1.672,0,0,0,2.364,0l17.21-17.21,14.7,14.7a1.672,1.672,0,0,0,2.364,0L74.788,15.783v2.652a1.673,1.673,0,0,0,3.345,0V11.747a1.7,1.7,0,0,0-.117-.584c-.023-.057-.049-.113-.078-.168a1.677,1.677,0,0,0-.233-.348,1.466,1.466,0,0,0-.558-.424c-.015,0-.027-.021-.041-.025a1.681,1.681,0,0,0-.586-.116c-.023,0-.038-.009-.058-.009H69.772a1.672,1.672,0,0,0,0,3.345h2.652L55.5,30.344l-14.7-14.7a1.672,1.672,0,0,0-2.364,0l-17.21,17.21Z" transform="translate(-20.042 -10.074)" fill="#fff"/>
</svg>
